Coordinates
version=1
nRows=12
nColumns=24
inDegrees=yes

Units are S.I. units (second, meters, Newtons, ...)
Angles are in degrees.

endheader
time	pelvis_tilt	pelvis_list	pelvis_rotation	pelvis_tx	pelvis_ty	pelvis_tz	hip_flexion_r	hip_adduction_r	hip_rotation_r	knee_angle_r	ankle_angle_r	subtalar_angle_r	mtp_angle_r	hip_flexion_l	hip_adduction_l	hip_rotation_l	knee_angle_l	ankle_angle_l	subtalar_angle_l	mtp_angle_l	lumbar_extension	lumbar_bending	lumbar_rotation
      7.17000000	     37.94556266	      3.70150571	      3.93274639	      2.17733483	      0.67776122	     -0.27094830	    -16.37743889	     -5.37936667	    -15.65992518	    -63.52616308	     11.49734307	      0.39102822	      0.00000000	    -31.91522176	      3.48007632	      1.88532422	    -16.52977274	     17.87557394	     12.70025646	      0.00000000	    -64.44505494	      0.05634363	     -4.81861405
      7.17500000	     37.92526439	      3.75687936	      4.24917285	      2.18284354	      0.67798508	     -0.27092799	    -15.75985802	     -5.36392599	    -15.95922292	    -62.52174336	     11.95352062	      0.68992387	      0.00000000	    -32.60315767	      3.25934161	      2.01162064	    -16.18261751	     18.27712788	     13.09237489	      0.00000000	    -64.47219560	      0.27102848	     -5.07395855
      7.18000000	     37.91442926	      3.80229597	      4.52566162	      2.18833395	      0.67815786	     -0.27088154	    -15.17647077	     -5.34378254	    -16.21417105	    -61.41993685	     12.39440404	      0.83106257	      0.00000000	    -33.30894901	      3.05711534	      2.14945741	    -15.81483209	     18.59488610	     13.29929953	      0.00000000	    -64.51896940	      0.47598541	     -5.35349140
      7.18500000	     37.81778143	      3.85429569	      4.64698235	      2.19377542	      0.67817504	     -0.27072643	    -14.45409848	     -5.38695346	    -16.30069288	    -60.30969611	     12.80947810	      0.79769216	      0.00000000	    -33.92207306	      2.96790543	      2.19975432	    -15.44064023	     18.84254431	     13.31674897	      0.00000000	    -64.50213642	      0.53888917	     -5.54737716
      7.19000000	     37.94723875	      3.97218420	      5.06191906	      2.19930272	      0.67835180	     -0.27071313	    -14.19559453	     -5.38282452	    -16.73163662	    -58.92555279	     13.15690856	      0.90675483	      0.00000000	    -34.80477461	      2.71020982	      2.47566996	    -15.03612764	     19.18123382	     13.61602806	      0.00000000	    -64.68009062	      0.80048294	     -5.92030606
      7.19500000	     37.86288552	      4.02072656	      5.22440888	      2.20482304	      0.67828974	     -0.27063245	    -13.59905681	     -5.42184071	    -16.85537913	    -57.59055327	     13.46313087	      1.00584231	      0.00000000	    -35.45756480	      2.58154965	      2.53056880	    -14.62213953	     19.47620278	     13.73559611	      0.00000000	    -64.65731503	      0.92197086	     -6.12717742
      7.20000000	     37.84094419	      4.11215634	      5.44104730	      2.21032511	      0.67822063	     -0.27052811	    -13.14566230	     -5.46741396	    -17.04829063	    -56.12299719	     13.73187732	      0.98127104	      0.00000000	    -36.18531893	      2.43632156	      2.64118673	    -14.19180215	     19.74924244	     13.90446220	      0.00000000	    -64.70612810	      1.05515560	     -6.40887330
      7.20500000	     37.81336815	      4.20903164	      5.62780512	      2.21583508	      0.67808708	     -0.27043718	    -12.71989160	     -5.52907476	    -17.20678650	    -54.56666630	     13.96341712	      0.94511337	      0.00000000	    -36.91427839	      2.31631338	      2.74824636	    -13.75247054	     20.00240838	     14.01804587	      0.00000000	    -64.74712861	      1.17091447	     -6.65989428
      7.21000000	     37.64483725	      4.35894630	      5.64454517	      2.22129058	      0.67772940	     -0.27029922	    -12.07710416	     -5.72491697	    -17.17833156	    -53.06139389	     14.19340800	      0.84061437	      0.00000000	    -37.48349168	      2.38428006	      2.81558510	    -13.33247496	     20.23571962	     13.99862815	      0.00000000	    -64.67058368	      1.12074296	     -6.80135340
      7.21500000	     37.77932832	      4.46238004	      5.97046991	      2.22685815	      0.67764749	     -0.27026147	    -12.02410252	     -5.71194472	    -17.51352355	    -51.17252129	     14.35549663	      0.74906711	      0.00000000	    -38.40814376	      2.12792222	      2.96309953	    -12.86186243	     20.48584611	     14.30299126	      0.00000000	    -64.86003732	      1.35526647	     -7.11907438
      7.22000000	     37.58316782	      4.59246135	      5.95982215	      2.23235477	      0.67718581	     -0.27016021	    -11.44136942	     -5.89906857	    -17.47404369	    -49.45749601	     14.51157197	      0.67651453	      0.00000000	    -38.95435504	      2.19745807	      2.96896201	    -12.43702075	     20.66976367	     14.27551373	      0.00000000	    -64.74947904	      1.31947574	     -7.30901931
      7.22500000	     37.58691613	      4.69204651	      6.18508620	      2.23794671	      0.67688207	     -0.27014589	    -11.26535192	     -5.93228731	    -17.69451296	    -47.46983064	     14.52011532	      0.56067339	      0.00000000	    -39.74603156	      2.02022743	      3.01623111	    -11.95418557	     20.95230158	     14.59052642	      0.00000000	    -64.81665691	      1.49659882	     -7.55935911
